<svg width="72" height="72" viewBox="0 0 72 72" fill="none" xmlns="http://www.w3.org/2000/svg">
<path d="M55.1333 29.7333C55.1333 31.6 56.6667 33.1333 58.4 33.1333C60.2667 33.1333 61.8 31.6 61.8 29.7333C61.8 27.8667 60.2667 26.4667 58.4 26.4667C56.6667 26.4 55.1333 27.9333 55.1333 29.7333ZM27.2667 38.4C27.2667 33.5333 31.2 29.6667 36.0667 29.6667C40.8 29.6667 44.7333 33.6 44.7333 38.4C44.7333 43.2 40.8667 47 36.0667 47C31.2 47 27.2667 43.2 27.2667 38.4ZM22.9333 38.4C22.9333 45.6667 28.8 51.5333 36.0667 51.5333C43.2 51.5333 49.1333 45.6 49.1333 38.4C49.1333 31.0667 43.2667 25.2667 36.0667 25.2667C28.8 25.2667 22.9333 31.0667 22.9333 38.4ZM6 51.1333V27.0667C6 24.6 8 22.8 10.4 22.8H11.8V20.8667C11.8 19.5333 12.6667 18.6667 14.0667 18.6667H17.2667C18.6 18.6667 19.5333 19.6 19.5333 20.8667V22.8H22.4L24.6667 17.2667C24.9333 16.5333 25.6667 16 26.6 16H45.4C46.2667 16 47.0667 16.5333 47.3333 17.2667L49.5333 22.8H61.6C64 22.8 66 24.6667 66 27.0667V51.1333C66 53.4667 64 55.4 61.6 55.4H10.4C8 55.3333 6 53.4667 6 51.1333Z" fill="black"/>
</svg>
