<svg width="72" height="72" viewBox="0 0 72 72" fill="none" xmlns="http://www.w3.org/2000/svg">
<path d="M58.58 45.37V24.04C58.618 23.1537 58.304 22.2882 57.7064 21.6325C57.1088 20.9768 56.2761 20.5841 55.39 20.54H53.94C53.053 20.5841 52.2194 20.9765 51.6201 21.6319C51.0209 22.2873 50.7046 23.1527 50.74 24.04V45.37C50.7423 45.5156 50.7764 45.659 50.84 45.79L53.76 51.64C53.8438 51.8064 53.9725 51.9462 54.1316 52.0433C54.2906 52.1405 54.4736 52.1913 54.66 52.19C54.8446 52.1895 55.0255 52.1378 55.1826 52.0407C55.3397 51.9436 55.4669 51.8049 55.55 51.64L58.48 45.79C58.5435 45.659 58.5776 45.5156 58.58 45.37Z" fill="black"/>
<path d="M45.79 13C46.0552 13 46.3095 13.1054 46.4971 13.293C46.6846 13.4805 46.79 13.7348 46.79 14V58.75C46.79 59.0152 46.6846 59.2695 46.4971 59.457C46.3095 59.6446 46.0552 59.75 45.79 59.75H14C13.7348 59.75 13.4805 59.6446 13.293 59.457C13.1054 59.2695 13 59.0152 13 58.75V14C13 13.7348 13.1054 13.4805 13.293 13.293C13.4805 13.1054 13.7348 13 14 13H45.79ZM20.04 50.25C19.7748 50.25 19.5205 50.3554 19.333 50.543C19.1455 50.7305 19.04 50.9848 19.04 51.25C19.04 51.5152 19.1455 51.7695 19.333 51.957C19.5205 52.1446 19.7748 52.25 20.04 52.25H39.71C39.9752 52.25 40.2295 52.1445 40.417 51.957C40.6045 51.7695 40.71 51.5152 40.71 51.25C40.71 50.9848 40.6045 50.7305 40.417 50.543C40.2295 50.3555 39.9752 50.25 39.71 50.25H20.04ZM20.04 43.25C19.7748 43.25 19.5205 43.3554 19.333 43.543C19.1455 43.7305 19.04 43.9848 19.04 44.25C19.04 44.5152 19.1455 44.7695 19.333 44.957C19.5205 45.1446 19.7748 45.25 20.04 45.25H39.71C39.9752 45.25 40.2295 45.1445 40.417 44.957C40.6045 44.7695 40.71 44.5152 40.71 44.25C40.71 43.9848 40.6045 43.7305 40.417 43.543C40.2295 43.3555 39.9752 43.25 39.71 43.25H20.04ZM20.04 36.25C19.7748 36.25 19.5205 36.3554 19.333 36.543C19.1455 36.7305 19.04 36.9848 19.04 37.25C19.04 37.5152 19.1455 37.7695 19.333 37.957C19.5205 38.1446 19.7748 38.25 20.04 38.25H39.71C39.9752 38.25 40.2295 38.1445 40.417 37.957C40.6045 37.7695 40.71 37.5152 40.71 37.25C40.71 36.9848 40.6045 36.7305 40.417 36.543C40.2295 36.3555 39.9752 36.25 39.71 36.25H20.04ZM20.04 29.25C19.7748 29.25 19.5205 29.3554 19.333 29.543C19.1455 29.7305 19.04 29.9848 19.04 30.25C19.04 30.5152 19.1455 30.7695 19.333 30.957C19.5205 31.1446 19.7748 31.25 20.04 31.25H39.71C39.9752 31.25 40.2295 31.1445 40.417 30.957C40.6045 30.7695 40.71 30.5152 40.71 30.25C40.71 29.9848 40.6045 29.7305 40.417 29.543C40.2295 29.3555 39.9752 29.25 39.71 29.25H20.04ZM20.04 22.25C19.7748 22.25 19.5205 22.3554 19.333 22.543C19.1455 22.7305 19.04 22.9848 19.04 23.25C19.04 23.5152 19.1455 23.7695 19.333 23.957C19.5205 24.1446 19.7748 24.25 20.04 24.25H39.71C39.9752 24.25 40.2295 24.1445 40.417 23.957C40.6045 23.7695 40.71 23.5152 40.71 23.25C40.71 22.9848 40.6045 22.7305 40.417 22.543C40.2295 22.3555 39.9752 22.25 39.71 22.25H20.04Z" fill="black"/>
</svg>
